<?xml version="1.0" standalone="no"?>
<!DOCTYPE svg PUBLIC "-//W3C//DTD SVG 20010904//EN"
 "http://www.w3.org/TR/2001/REC-SVG-20010904/DTD/svg10.dtd">
<svg version="1.0" xmlns="http://www.w3.org/2000/svg"
 width="409.000000pt" height="250.000000pt" viewBox="0 0 409.000000 250.000000"
 preserveAspectRatio="xMidYMid meet">

<g transform="translate(0.000000,250.000000) scale(0.100000,-0.100000)"
fill="#333" stroke="none">
<path d="M1894 2250 c-23 -5 -61 -14 -85 -21 l-44 -12 35 -8 c21 -5 62 -4 101
2 61 11 120 10 399 -6 l85 -5 -40 16 c-101 39 -335 57 -451 34z"/>
<path d="M1637 2153 c-143 -3 -188 -6 -184 -16 2 -6 19 -14 38 -18 53 -9 79
-27 100 -72 18 -40 19 -76 18 -747 0 -519 -3 -714 -12 -740 -14 -39 -67 -80
-106 -80 -28 0 -59 -15 -50 -25 4 -3 206 -7 450 -8 453 -2 513 1 669 39 242
59 414 229 478 475 46 175 53 402 18 567 -80 371 -340 585 -756 622 -108 9
-208 10 -663 3z m662 -52 c209 -65 326 -259 360 -595 42 -414 -35 -756 -204
-915 -92 -85 -147 -105 -297 -106 -115 0 -118 1 -145 28 l-28 27 0 766 0 766
28 24 c26 22 37 24 127 24 68 0 117 -6 159 -19z"/>
<path d="M1394 1998 c-213 -201 -328 -511 -296 -796 18 -158 80 -328 165 -451
47 -69 168 -191 188 -191 11 0 19 3 19 6 0 4 -33 41 -73 83 -89 94 -126 146
-177 253 -67 140 -84 219 -84 398 0 128 4 169 22 235 43 158 155 344 270 447
23 21 42 42 42 47 0 27 -26 17 -76 -31z"/>
<path d="M1770 381 c61 -39 344 -55 475 -27 89 19 141 39 75 28 -56 -9 -296
-8 -450 2 -75 5 -110 4 -100 -3z"/>
</g>
</svg>
